<?xml version="1.0" encoding="UTF-8" standalone="no"?>
<!DOCTYPE svg PUBLIC "-//W3C//DTD SVG 1.1//EN" "http://www.w3.org/Graphics/SVG/1.1/DTD/svg11.dtd">
<svg version="1.1" xmlns="http://www.w3.org/2000/svg" xmlns:xlink="http://www.w3.org/1999/xlink" preserveAspectRatio="xMidYMid meet" viewBox="5.684341886080802e-14 0 280 280" width="280" height="280"><defs><path d="M0 0L280 0L280 280L0 280L0 0Z" id="c1qellEVP"></path><path d="" id="c3FFvh7dl"></path><path d="M234.95 103.54C241.71 102.08 245.23 105.92 261.99 97.72C278.75 89.52 282.26 54.44 266.56 29.35C262.09 22.2 252.69 12.46 233.63 10.15C220.93 8.61 207.18 18.92 192.38 41.07C216.26 83.69 230.45 104.51 234.95 103.54Z" id="aH7bvxlQI"></path><path d="M79.9 44.37C76.07 34.34 71.18 26.91 65.26 22.11C63.34 20.54 61.3 19.26 59.16 18.25C46.04 12.07 35.9 15.03 27.43 19.65C18.96 24.26 9.72 35.74 6.03 48.67C3.46 57.65 1.23 70.97 6.98 88.1C9.61 95.93 15.27 100.86 23.96 102.88C29.96 104.28 34.4 103.59 37.88 103.83C40.2 103.99 54.2 84.17 79.9 44.37Z" id="atXuo7OEk"></path><path d="M111.95 28.41C164.55 23.24 191.51 33.08 198.38 49.63C210.36 78.5 210.51 79.38 228.04 99.95C245.56 120.53 255.57 147.96 256.23 161.49C256.9 175.03 213.32 230.65 176.71 257.53C159.32 270.3 113.65 265.31 104.05 261.83C97.64 259.51 84.44 249.76 64.43 232.59C52.01 221.22 42.57 206.9 36.1 189.64C26.4 163.75 22.63 154.31 25.61 129.03C28.58 103.75 36.53 97.89 48 88.53C55.65 82.29 65.55 67.35 77.7 43.72C91.97 34.35 103.38 29.25 111.95 28.41Z" id="frvzDZZHM"></path><path d="" id="bEM8DoOsU"></path><path d="M160.05 109.18C160.71 114.24 145.25 127.92 141.98 139.98C139.81 148.01 141.48 153.83 146.99 157.41C154.6 161.38 158.94 164.91 160.03 168.02C161.66 172.67 143.68 170.04 133.21 170.37C122.73 170.7 111.3 175.01 108.03 169C107.05 167.18 119.97 160.73 126.13 156.09C131.82 151.81 132.72 145.44 131.94 140.97C131.17 136.5 116.64 113.48 118.09 109.61C119.54 105.73 126.79 128.98 137.28 128.87C147.77 128.76 159.39 104.13 160.05 109.18Z" id="bbnoG2Q2t"></path><path d="M90.23 155.85C84.41 159.13 78.12 156.96 75.34 150.51C72.56 144.07 76.96 134.03 83.57 122.92C90.19 111.82 94.9 101.32 104.19 100.64C112.37 100.04 116.28 111.15 114.74 118.58C113.72 123.54 111.16 129.53 107.08 136.56C101.66 146.14 96.04 152.57 90.23 155.85Z" id="a1ZTbtu2yM"></path><path d="M130.8 177.7C156.49 177.86 163.33 179.63 148.44 189.35C133.55 199.06 132.25 202.83 117.79 190.84C103.34 178.85 105.11 177.54 130.8 177.7Z" id="aqCEA0tiS"></path><path d="M111.83 118.81C112.61 123.32 109.74 127.61 105.42 128.39C101.11 129.16 96.97 126.13 96.19 121.62C95.41 117.11 98.28 112.81 102.6 112.04C106.91 111.26 111.05 114.3 111.83 118.81Z" id="loXhzUv6k"></path><path d="" id="b17ZQXBRiq"></path><path d="M200.44 150.69C199.07 160 193.82 162.51 186.07 162.67C178.33 162.84 164.86 129.91 163.52 125.64C162.18 121.37 159.1 112.19 166.2 104.86C173.3 97.53 181.12 106.4 183.82 109.93C186.52 113.46 201.82 141.38 200.44 150.69Z" id="c31DVPrNwk"></path><path d="M215.62 66.82C223.65 82.14 232.19 92.48 234.24 92.03C238.57 91.1 240.17 93.99 250.85 88.43C261.54 82.87 263.34 58.15 252.89 40.21C249.91 35.1 243.73 28.09 231.42 26.19C223.21 24.93 215.1 31.91 207.07 47.13C209.49 54 212.35 60.56 215.62 66.82Z" id="ch9ocECFY"></path><path d="M181.72 121.66C182.5 126.18 179.63 130.47 175.32 131.24C171 132.02 166.86 128.99 166.08 124.48C165.3 119.96 168.17 115.67 172.49 114.9C176.8 114.12 180.94 117.15 181.72 121.66Z" id="acrWdh3Wu"></path><path d="M105.9 117.3C107.38 118.41 107.73 120.57 106.68 122.11C105.62 123.64 103.56 123.99 102.08 122.87C100.59 121.76 100.25 119.61 101.3 118.07C102.36 116.53 104.42 116.19 105.9 117.3Z" id="gWdRC8yGS"></path><path d="M176.98 121.57C177.44 123.41 176.38 125.28 174.62 125.74C172.86 126.21 171.05 125.09 170.6 123.24C170.14 121.4 171.2 119.53 172.96 119.07C174.72 118.61 176.52 119.73 176.98 121.57Z" id="g1fTrQAgFI"></path><path d="M129.61 182.14C137.34 182.19 139.4 182.73 134.92 185.65C130.44 188.57 130.05 189.7 125.7 186.1C121.35 182.49 121.88 182.1 129.61 182.14Z" id="c1TMZd7tTN"></path><path d="M151.14 227.55C149.96 232.82 148.82 242.67 145.84 245.87C140.7 251.39 135.08 252.18 131.75 251.87C128.42 251.55 114.77 248.82 113.75 235.03C112.73 221.24 108.43 217.97 105.29 207.28C102.15 196.58 101.67 189.71 110.49 194.02C114.54 196 126 203.85 130.2 203.69C135.13 203.5 143.63 198.84 152.93 194.96C162.22 191.08 164.61 198.02 159.98 208.52C155.35 219.02 153.96 215.01 151.14 227.55Z" id="a3bAOL64P"></path><path d="M48.6 75.66C53.48 69.62 59.25 60.67 65.9 48.82C63.36 42.25 60.13 37.39 56.19 34.25C54.91 33.23 53.56 32.39 52.14 31.73C43.42 27.71 36.66 29.67 31.02 32.71C25.37 35.75 19.2 43.29 16.72 51.77C14.99 57.66 13.49 66.4 17.28 77.62C18.26 80.49 19.86 82.76 22.1 84.43C23.86 85.75 26.01 86.7 28.56 87.27C32.55 88.18 32.73 85.96 35.04 86.11C35.94 86.16 41.71 84.18 48.6 75.66Z" id="a199mUjxKS"></path><path d="M143.44 228.03C142.77 231.75 142.18 238.74 140.37 240.98C137.25 244.83 133.77 245.32 131.7 245.05C129.62 244.79 121.1 242.67 120.29 232.85C119.48 223.04 116.77 220.66 114.68 213.02C112.59 205.37 112.21 200.49 117.74 203.66C120.29 205.12 127.51 210.85 130.12 210.79C133.18 210.72 138.4 207.52 144.13 204.89C149.86 202.25 151.43 207.22 148.69 214.62C145.95 222.02 145.03 219.15 143.44 228.03Z" id="fm7PnyYI"></path><path d="M174.87 190.67C167.42 200.49 164.67 217.36 160.45 227.21C156.23 237.06 157.72 241.66 158.36 243.67C160.52 250.49 169.27 240.54 170.27 234.41C171.28 228.27 170.47 222.19 199.82 200.5C219.39 186.03 217.02 180.13 192.71 182.78C185.78 181.49 179.84 184.12 174.87 190.67Z" id="aUuH4oNq9"></path><path d="M91.29 185.19C92.63 184.48 94.92 193.35 98.15 211.82C102.99 239.52 107.98 247.78 81.16 222.3C54.34 196.82 62.9 183.83 73.02 182.64C79.76 181.85 85.85 182.7 91.29 185.19Z" id="a7ROlTGLx9"></path><path d="M181.68 51.38C193.49 63.06 166.59 63.58 159.38 71.14C152.17 78.7 144.7 100.99 137.43 101.25C129.14 101.56 125.14 86.25 119.05 78.39C112.95 70.53 103.2 67.88 103.34 60.33C103.5 51.18 112.28 45.16 129.66 42.29C151.32 35.48 168.66 38.51 181.68 51.38Z" id="b2lxnlOFN6"></path></defs><g><g><g><use xlink:href="#c1qellEVP" opacity="1" fill="#a9bbc5" fill-opacity="0"></use></g><g><g><use xlink:href="#c3FFvh7dl" opacity="1" fill-opacity="0" stroke="#4a5269" stroke-width="6" stroke-opacity="0.5"></use></g></g><g><use xlink:href="#aH7bvxlQI" opacity="1" fill="#37423d" fill-opacity="1"></use><g><use xlink:href="#aH7bvxlQI" opacity="1" fill-opacity="0" stroke="#4a5269" stroke-width="4" stroke-opacity="0.5"></use></g></g><g><use xlink:href="#atXuo7OEk" opacity="1" fill="#37423d" fill-opacity="1"></use><g><use xlink:href="#atXuo7OEk" opacity="1" fill-opacity="0" stroke="#4a5269" stroke-width="4" stroke-opacity="0.5"></use></g></g><g><use xlink:href="#frvzDZZHM" opacity="1" fill="#e5ebed" fill-opacity="1"></use><g><use xlink:href="#frvzDZZHM" opacity="1" fill-opacity="0" stroke="#515557" stroke-width="7" stroke-opacity="0.55"></use></g></g><g><g><use xlink:href="#bEM8DoOsU" opacity="1" fill-opacity="0" stroke="#f31e1e" stroke-width="1" stroke-opacity="1"></use></g></g><g><use xlink:href="#bbnoG2Q2t" opacity="1" fill="#a9b8c0" fill-opacity="1"></use></g><g><use xlink:href="#a1ZTbtu2yM" opacity="1" fill="#141011" fill-opacity="1"></use><g><use xlink:href="#a1ZTbtu2yM" opacity="1" fill-opacity="0" stroke="#4a5269" stroke-width="3" stroke-opacity="0.7"></use></g></g><g><use xlink:href="#aqCEA0tiS" opacity="1" fill="#2c2c2c" fill-opacity="1"></use></g><g><use xlink:href="#loXhzUv6k" opacity="1" fill="#4a5269" fill-opacity="0.8"></use></g><g><g><use xlink:href="#b17ZQXBRiq" opacity="1" fill-opacity="0" stroke="#f31e1e" stroke-width="1" stroke-opacity="1"></use></g></g><g><use xlink:href="#c31DVPrNwk" opacity="1" fill="#141011" fill-opacity="1"></use><g><use xlink:href="#c31DVPrNwk" opacity="1" fill-opacity="0" stroke="#4a5269" stroke-width="3" stroke-opacity="0.7"></use></g></g><g><use xlink:href="#ch9ocECFY" opacity="1" fill="#63766e" fill-opacity="0.4"></use></g><g><use xlink:href="#acrWdh3Wu" opacity="1" fill="#4a5269" fill-opacity="0.8"></use></g><g><use xlink:href="#gWdRC8yGS" opacity="1" fill="#dbc3c3" fill-opacity="0.8"></use></g><g><use xlink:href="#g1fTrQAgFI" opacity="1" fill="#dbc3c3" fill-opacity="1"></use></g><g><use xlink:href="#c1TMZd7tTN" opacity="1" fill="#8a8585" fill-opacity="0.56"></use></g><g><use xlink:href="#a3bAOL64P" opacity="1" fill="#db6e6e" fill-opacity="0.86"></use></g><g><use xlink:href="#a199mUjxKS" opacity="1" fill="#63766e" fill-opacity="0.4"></use></g><g><use xlink:href="#fm7PnyYI" opacity="1" fill="#cdc4c4" fill-opacity="0.4"></use></g><g><use xlink:href="#aUuH4oNq9" opacity="1" fill="#c3d4dd" fill-opacity="0.5"></use></g><g><use xlink:href="#a7ROlTGLx9" opacity="1" fill="#c3d4dd" fill-opacity="0.49"></use></g><g><use xlink:href="#b2lxnlOFN6" opacity="1" fill="#c3d2da" fill-opacity="0.5"></use></g></g></g></svg>